<svg width="2204" height="2204" viewBox="0 0 2204 2204" fill="none" xmlns="http://www.w3.org/2000/svg">
<path d="M1099.78 1994.07C979.137 1994.07 862.093 1970.44 751.897 1923.83C645.472 1878.81 549.897 1814.38 467.828 1732.31C385.759 1650.24 321.322 1554.66 276.308 1448.24C229.699 1338.04 206.066 1221 206.066 1100.36C206.066 979.718 229.699 862.674 276.308 752.478C321.322 646.052 385.759 550.477 467.828 468.407C549.897 386.338 645.472 321.902 751.897 276.888C862.094 230.279 979.138 206.646 1099.78 206.646C1220.42 206.646 1337.46 230.279 1447.66 276.888C1554.08 321.902 1649.66 386.339 1731.73 468.407C1813.79 550.476 1878.23 646.052 1923.25 752.478C1969.85 862.674 1993.49 979.718 1993.49 1100.36C1993.49 1221 1969.85 1338.04 1923.25 1448.24C1878.23 1554.66 1813.8 1650.24 1731.73 1732.31C1649.66 1814.38 1554.08 1878.81 1447.66 1923.83C1337.46 1970.44 1220.42 1994.07 1099.78 1994.07ZM1099.78 254.568C633.408 254.568 253.988 633.988 253.988 1100.36C253.988 1566.73 633.407 1946.15 1099.78 1946.15C1566.15 1946.15 1945.57 1566.73 1945.57 1100.36C1945.57 633.988 1566.15 254.568 1099.78 254.568Z" fill="#BB942E"/>
<path d="M2203.04 1101.52C2203.04 1070.51 2110.33 1043.76 2107.71 1013.43C2105.05 982.581 2191.74 940.282 2186.49 910.252C2181.15 879.8 2085.21 869.51 2077.33 840.016C2069.36 810.189 2147.34 753.407 2136.88 724.682C2126.33 695.705 2030.07 702.348 2017.12 674.619C2004.08 646.709 2070.95 577.172 2055.61 550.656C2040.19 524.017 1946.56 547.319 1928.96 522.217C1911.3 497.042 1965.08 416.951 1945.35 393.454C1925.58 369.924 1837.4 409.071 1815.69 387.357C1793.97 365.643 1833.12 277.461 1809.59 257.697C1786.09 237.961 1706 291.746 1680.83 274.086C1655.72 256.478 1679.03 162.848 1652.39 147.435C1625.87 132.093 1556.33 198.957 1528.42 185.92C1500.69 172.968 1507.34 76.709 1478.36 66.16C1449.64 55.703 1392.85 133.682 1363.03 125.71C1333.53 117.827 1323.24 21.888 1292.79 16.555C1262.76 11.296 1220.46 97.989 1189.62 95.325C1159.29 92.706 1132.53 0 1101.52 0C1070.51 0 1043.76 92.706 1013.43 95.325C982.581 97.989 940.282 11.296 910.252 16.555C879.8 21.888 869.511 117.827 840.016 125.71C810.189 133.682 753.407 55.702 724.682 66.16C695.705 76.709 702.348 172.968 674.619 185.92C646.709 198.956 577.173 132.092 550.656 147.434C524.017 162.847 547.319 256.476 522.217 274.085C497.042 291.745 416.951 237.959 393.454 257.695C369.924 277.459 409.071 365.642 387.357 387.355C365.643 409.069 277.461 369.922 257.697 393.452C237.961 416.949 291.746 497.04 274.086 522.215C256.478 547.317 162.848 524.015 147.435 550.654C132.093 577.171 198.957 646.707 185.92 674.617C172.968 702.346 76.709 695.703 66.16 724.68C55.703 753.405 133.682 810.188 125.71 840.015C117.827 869.51 21.888 879.799 16.555 910.251C11.296 940.281 97.989 982.581 95.325 1013.43C92.706 1043.76 0 1070.51 0 1101.52C0 1132.53 92.706 1159.29 95.325 1189.61C97.989 1220.46 11.296 1262.76 16.554 1292.79C21.887 1323.24 117.826 1333.53 125.709 1363.03C133.681 1392.85 55.701 1449.63 66.159 1478.36C76.708 1507.34 172.967 1500.69 185.919 1528.42C198.955 1556.33 132.091 1625.87 147.433 1652.39C162.846 1679.02 256.475 1655.72 274.084 1680.82C291.744 1706 237.958 1786.09 257.694 1809.59C277.458 1833.12 365.641 1793.97 387.354 1815.69C409.068 1837.4 369.921 1925.58 393.451 1945.35C416.947 1965.08 497.039 1911.3 522.214 1928.96C547.316 1946.57 524.014 2040.19 550.653 2055.61C577.17 2070.95 646.706 2004.09 674.616 2017.12C702.345 2030.07 695.702 2126.33 724.679 2136.88C753.404 2147.34 810.187 2069.36 840.014 2077.33C869.509 2085.22 879.798 2181.15 910.25 2186.49C940.28 2191.75 982.58 2105.05 1013.43 2107.72C1043.76 2110.34 1070.51 2203.04 1101.52 2203.04C1132.53 2203.04 1159.28 2110.34 1189.61 2107.72C1220.46 2105.05 1262.76 2191.75 1292.79 2186.49C1323.24 2181.16 1333.53 2085.22 1363.03 2077.33C1392.85 2069.36 1449.63 2147.34 1478.36 2136.88C1507.34 2126.33 1500.69 2030.08 1528.42 2017.12C1556.33 2004.09 1625.87 2070.95 1652.38 2055.61C1679.02 2040.2 1655.72 1946.57 1680.82 1928.96C1706 1911.3 1786.09 1965.08 1809.59 1945.35C1833.12 1925.58 1793.97 1837.4 1815.68 1815.69C1837.4 1793.97 1925.58 1833.12 1945.34 1809.59C1965.08 1786.1 1911.29 1706 1928.95 1680.83C1946.56 1655.73 2040.19 1679.03 2055.61 1652.39C2070.95 1625.87 2004.08 1556.34 2017.12 1528.43C2030.07 1500.7 2126.33 1507.34 2136.88 1478.36C2147.34 1449.64 2069.36 1392.86 2077.33 1363.03C2085.21 1333.53 2181.15 1323.24 2186.49 1292.79C2191.74 1262.76 2105.05 1220.46 2107.72 1189.62C2110.33 1159.29 2203.04 1132.53 2203.04 1101.52ZM1101.07 2035.85C585.234 2035.85 167.068 1617.69 167.068 1101.85C167.068 586.021 585.234 167.855 1101.07 167.855C1616.9 167.855 2035.07 586.021 2035.07 1101.85C2035.07 1617.69 1616.9 2035.85 1101.07 2035.85Z" fill="#BB942E"/>
<path d="M1097.07 509.657C1240.04 509.657 1371.07 562.541 1472.21 650.051L1506.64 640.748C1455.64 593.601 1397.73 555.952 1334.12 528.641C1259.03 496.401 1179.28 480.054 1097.07 480.054C1014.86 480.054 935.105 496.401 860.018 528.641C787.515 559.772 722.408 604.332 666.504 661.082C610.616 717.817 566.736 783.884 536.086 857.447C529.165 874.057 522.99 890.892 517.562 907.929L552.089 898.602C632.653 672.037 846.534 509.657 1097.07 509.657Z" fill="#BB942E"/>
<path d="M1641.53 1298.58C1560.56 1524.38 1347.06 1686.05 1097.07 1686.05C954.652 1686.05 824.078 1633.58 723.102 1546.68L688.615 1555.99C739.344 1602.66 796.875 1639.96 860.017 1667.07C935.104 1699.31 1014.86 1715.66 1097.07 1715.66C1179.28 1715.66 1259.03 1699.31 1334.12 1667.07C1406.62 1635.94 1471.73 1591.38 1527.64 1534.63C1583.52 1477.89 1627.4 1411.83 1658.05 1338.26C1664.78 1322.13 1670.79 1305.78 1676.1 1289.24L1641.53 1298.58Z" fill="#BB942E"/>
<path d="M540.572 545.193C558.661 523.886 577.673 503.683 597.858 484.35C601.698 488.431 603.619 490.471 607.459 494.552C587.681 513.496 569.052 533.291 551.328 554.168C547.026 550.578 544.875 548.783 540.572 545.193ZM568.485 526.813C573.568 521.266 576.143 518.532 581.356 513.147C605.303 536.34 629.25 559.532 653.197 582.725C648.745 587.325 646.545 589.66 642.203 594.399C617.631 571.87 593.058 549.342 568.485 526.813Z" fill="#BB942E"/>
<path d="M609.824 473.343C615.422 468.313 618.251 465.84 623.966 460.979C647.486 488.641 671.007 516.303 694.527 543.965C689.708 548.064 687.322 550.15 682.602 554.391C658.343 527.374 634.083 500.359 609.824 473.343ZM650.561 501.834C664.625 489.865 678.989 478.446 693.82 467.446C697.098 471.954 698.737 474.208 702.015 478.716C687.504 489.478 673.449 500.652 659.689 512.363C656.037 508.151 654.212 506.046 650.561 501.834ZM657.788 433.982C663.759 429.514 666.771 427.322 672.846 423.026C693.812 452.672 714.778 482.317 735.745 511.961C730.622 515.584 728.082 517.432 723.047 521.2C701.293 492.127 679.54 463.054 657.788 433.982Z" fill="#BB942E"/>
<path d="M719.518 392.753C725.14 389.419 727.968 387.786 733.66 384.589C762.954 409.571 790.847 435.819 817.523 463.581C811.509 466.508 808.521 468.016 802.586 471.117C781.589 449.114 759.907 427.934 737.432 407.442C743.945 437.152 751.436 466.526 759.969 495.721C754.289 499.327 751.472 501.172 745.887 504.948C735.241 467.936 726.495 430.629 719.518 392.753ZM741.083 462.989C755.297 454.063 769.825 445.597 784.719 437.852C787.305 442.79 788.598 445.258 791.184 450.196C776.623 457.768 762.42 466.044 748.523 474.771C745.547 470.058 744.059 467.702 741.083 462.989Z" fill="#BB942E"/>
<path d="M784.621 358.664C790.568 355.94 793.558 354.614 799.563 352.033C825.952 370.839 851.079 390.942 875.15 412.634C874.535 413.67 874.229 414.188 873.621 415.225C864.211 388.226 854.801 361.227 845.391 334.227C852.154 331.871 855.551 330.736 862.371 328.555C873.425 363.113 884.48 397.671 895.535 432.229C890.203 433.934 887.546 434.819 882.255 436.651C859.043 415.394 834.795 395.671 809.31 377.198C809.892 376.099 810.184 375.549 810.772 374.45C821.756 400.144 832.741 425.838 843.725 451.532C838.192 453.896 835.439 455.114 829.965 457.621C814.85 424.636 799.735 391.65 784.621 358.664Z" fill="#BB942E"/>
<path d="M887.379 321.071C894.455 319.097 898.006 318.157 905.132 316.37C913.959 351.589 922.787 386.807 931.615 422.026C925.606 423.533 922.611 424.326 916.645 425.99C906.889 391.017 897.134 356.044 887.379 321.071ZM916.394 376.347C925.805 352.685 936.255 329.734 947.867 307.072C956.272 305.518 960.489 304.805 968.944 303.509C950.481 335.062 934.491 367.479 920.892 401.415C919.063 391.394 918.163 386.381 916.394 376.347ZM930.154 362.519C934.043 357.046 936.036 354.323 940.118 348.909C957.592 368.767 974.024 389.197 989.632 410.552C982.368 411.611 978.746 412.198 971.524 413.483C958.323 395.968 944.572 379.042 930.154 362.519Z" fill="#BB942E"/>
<path d="M1069.91 359.482C1070.01 374.465 1070.11 389.448 1070.21 404.432C1063.96 404.474 1060.84 404.537 1054.61 404.745C1054.11 389.77 1053.62 374.795 1053.12 359.819C1041.74 338.684 1029.65 318.11 1016.75 297.868C1024.59 297.217 1028.52 296.947 1036.38 296.519C1045.05 312.043 1053.32 327.718 1061.24 343.64C1068.37 327.411 1075.87 311.417 1083.79 295.556C1091.69 295.666 1095.65 295.777 1103.56 296.113C1091.53 316.854 1080.35 337.896 1069.91 359.482Z" fill="#BB942E"/>
<path d="M1121.79 403.394C1116.77 400.254 1112.97 396.09 1110.4 390.831C1107.83 385.572 1106.67 379.539 1107.03 372.705C1107.81 358.142 1108.59 343.579 1109.37 329.015C1109.74 322.132 1111.65 316.24 1115.22 311.376C1118.78 306.514 1123.76 302.931 1130.15 300.72C1136.53 298.509 1143.97 297.83 1152.34 298.779C1160.71 299.728 1167.84 302.057 1173.6 305.648C1179.37 309.237 1183.46 313.853 1185.89 319.395C1188.31 324.938 1188.87 331.114 1187.69 337.904C1185.19 352.272 1182.68 366.639 1180.18 381.007C1179.01 387.749 1176.51 393.367 1172.8 397.911C1169.09 402.456 1164.42 405.657 1158.78 407.587C1153.15 409.518 1146.87 410.048 1139.84 409.251C1132.8 408.454 1126.82 406.535 1121.79 403.394ZM1151.96 393.864C1155.07 392.734 1157.6 390.896 1159.56 388.324C1161.53 385.754 1162.8 382.573 1163.36 378.767C1165.51 364.039 1167.66 349.312 1169.81 334.584C1170.37 330.779 1169.99 327.352 1168.66 324.313C1167.32 321.274 1165.11 318.77 1162.02 316.829C1158.93 314.889 1155.15 313.65 1150.71 313.147C1146.27 312.644 1142.32 313.007 1138.89 314.207C1135.45 315.408 1132.74 317.353 1130.73 320.015C1128.73 322.678 1127.59 325.933 1127.28 329.766C1126.09 344.602 1124.89 359.437 1123.7 374.273C1123.39 378.107 1123.93 381.494 1125.29 384.439C1126.65 387.385 1128.71 389.746 1131.47 391.542C1134.24 393.337 1137.56 394.442 1141.46 394.885C1145.36 395.327 1148.85 394.994 1151.96 393.864Z" fill="#BB942E"/>
<path d="M1207.03 416.914C1202.64 413.254 1199.62 408.76 1198 403.364C1196.38 397.967 1196.21 391.847 1197.61 384.995C1202.74 359.842 1207.88 334.69 1213.01 309.537C1220.41 311.049 1224.1 311.857 1231.48 313.575C1225.62 338.749 1219.77 363.922 1213.91 389.096C1212.6 394.739 1213.19 399.447 1215.6 403.24C1218.01 407.034 1222.06 409.637 1227.8 411.163C1233.6 412.703 1238.46 412.469 1242.49 410.388C1246.51 408.307 1249.39 404.523 1251.05 398.972C1258.46 374.212 1265.87 349.451 1273.28 324.691C1280.6 326.884 1284.26 328.033 1291.55 330.436C1283.52 354.817 1275.48 379.197 1267.44 403.578C1265.26 410.219 1262.04 415.437 1257.88 419.294C1253.73 423.151 1248.81 425.53 1243.11 426.506C1237.41 427.482 1231.11 427.001 1224.09 425.137C1217.08 423.273 1211.41 420.573 1207.03 416.914Z" fill="#BB942E"/>
<path d="M921.865 1745.58C944.432 1754.13 967.14 1761.38 990.486 1767.49C989.108 1773 988.419 1775.75 987.04 1781.26C963.11 1775 939.834 1767.56 916.703 1758.8C918.768 1753.51 919.8 1750.87 921.865 1745.58ZM945.289 1763.68C951.62 1765.8 954.793 1766.81 961.155 1768.74C951.366 1801.07 941.577 1833.39 931.788 1865.72C924.309 1863.45 920.578 1862.26 913.135 1859.77C923.853 1827.74 934.571 1795.71 945.289 1763.68Z" fill="#BB942E"/>
<path d="M1004.11 1770.72C1010.43 1772.14 1013.59 1772.81 1019.93 1774.04C1012.91 1810.15 1005.89 1846.27 998.865 1882.38C991.294 1880.9 987.513 1880.11 979.963 1878.42C988.01 1842.52 996.059 1806.62 1004.11 1770.72ZM1004.47 1820.88C1022.68 1824.43 1040.88 1827.31 1059.29 1829.57C1058.66 1835.19 1058.34 1837.99 1057.71 1843.6C1038.87 1841.29 1020.26 1838.34 1001.64 1834.71C1002.77 1829.17 1003.34 1826.41 1004.47 1820.88ZM1056.69 1779.95C1063.05 1780.76 1066.24 1781.12 1072.6 1781.75C1069 1818.36 1065.39 1854.97 1061.78 1891.58C1054.17 1890.83 1050.37 1890.41 1042.77 1889.44C1047.41 1852.94 1052.05 1816.45 1056.69 1779.95Z" fill="#BB942E"/>
<path d="M1120.35 1784.42C1125.97 1784.5 1128.78 1784.5 1134.38 1784.44C1146.86 1821.44 1161.19 1857.54 1177.43 1893.05C1169.31 1893.64 1165.24 1893.88 1157.1 1894.23C1146.12 1865.31 1136.21 1836.12 1127.33 1806.49C1118.35 1836.11 1108.32 1865.26 1097.2 1894.14C1089.02 1893.76 1084.93 1893.51 1076.74 1892.89C1093.21 1857.46 1107.73 1821.41 1120.35 1784.42ZM1100.69 1856C1118.83 1856.61 1136.88 1856.62 1155.03 1856.02C1155.26 1861.67 1155.38 1864.49 1155.62 1870.13C1137.07 1870.74 1118.63 1870.73 1100.08 1870.1C1100.32 1864.46 1100.44 1861.64 1100.69 1856Z" fill="#BB942E"/>
<path d="M1183.44 1781.78C1189.03 1781.23 1191.82 1780.92 1197.4 1780.24C1216.16 1806.88 1236.38 1832.12 1258.19 1856.33C1257.34 1857.31 1256.91 1857.79 1256.05 1858.77C1250.4 1830.36 1244.75 1801.95 1239.09 1773.53C1245.13 1772.33 1248.13 1771.69 1254.13 1770.33C1262.28 1806.17 1270.43 1842.02 1278.57 1877.87C1271.93 1879.38 1268.6 1880.09 1261.93 1881.44C1239.74 1857.94 1219.08 1833.41 1199.8 1807.47C1200.61 1806.58 1201.01 1806.13 1201.81 1805.24C1205.32 1833.33 1208.83 1861.42 1212.34 1889.52C1205.08 1890.42 1201.44 1890.83 1194.15 1891.54C1190.58 1854.96 1187.01 1818.37 1183.44 1781.78Z" fill="#BB942E"/>
<path d="M1275.89 1764.93C1281.98 1763.29 1285.02 1762.42 1291.06 1760.62C1301.61 1795.86 1312.16 1831.1 1322.7 1866.35C1315.48 1868.51 1311.86 1869.54 1304.58 1871.49C1295.02 1835.97 1285.45 1800.45 1275.89 1764.93ZM1305.09 1820.82C1313.52 1797.05 1320.69 1773.16 1326.68 1748.67C1333.56 1746.1 1336.98 1744.77 1343.78 1741.98C1335.33 1777.68 1324.16 1812.15 1310.28 1846.11C1308.24 1835.98 1307.2 1830.92 1305.09 1820.82ZM1318.39 1805.93C1321.82 1800.07 1323.48 1797.13 1326.71 1791.23C1347.2 1809.25 1368.34 1826.1 1390.44 1842.1C1382.21 1845.55 1378.06 1847.21 1369.72 1850.39C1352.03 1836.17 1334.97 1821.42 1318.39 1805.93Z" fill="#BB942E"/>
<path d="M1454.66 1758.62C1462.49 1771.62 1470.32 1784.63 1478.16 1797.63C1471.64 1801.55 1468.36 1803.47 1461.75 1807.2C1454.29 1793.98 1446.82 1780.76 1439.36 1767.54C1419.45 1754.07 1400.21 1739.93 1381.44 1724.91C1387.49 1721.9 1390.5 1720.35 1396.46 1717.15C1410.35 1728.21 1424.48 1738.84 1438.93 1749.15C1436.95 1731.56 1434.54 1714.1 1431.67 1696.64C1437.42 1693 1440.27 1691.14 1445.91 1687.33C1449.76 1711.03 1452.66 1734.7 1454.66 1758.62Z" fill="#BB942E"/>
<path d="M1528.44 1760.5C1521.69 1762.04 1515.43 1761.63 1509.72 1759.33C1504.01 1757.04 1499.22 1752.99 1495.27 1747.29C1486.87 1735.14 1478.46 1722.98 1470.05 1710.83C1466.08 1705.09 1463.88 1699.25 1463.33 1693.35C1462.79 1687.46 1463.88 1681.84 1466.57 1676.44C1469.26 1671.03 1473.43 1666.17 1479.1 1661.69C1484.77 1657.22 1490.49 1654.29 1496.4 1652.91C1502.31 1651.53 1508.06 1651.75 1513.69 1653.63C1519.32 1655.51 1524.5 1659 1529.16 1664.2C1539.02 1675.2 1548.88 1686.21 1558.74 1697.22C1563.36 1702.38 1566.17 1707.99 1567.04 1714.11C1567.91 1720.22 1566.82 1726.44 1563.72 1732.67C1560.61 1738.91 1555.64 1744.79 1548.84 1750.15C1542.04 1755.52 1535.19 1758.96 1528.44 1760.5ZM1547.66 1729.34C1549.32 1725.99 1549.91 1722.63 1549.45 1719.28C1548.99 1715.94 1547.49 1712.78 1544.97 1709.81C1535.24 1698.29 1525.5 1686.77 1515.77 1675.25C1513.26 1672.28 1510.45 1670.23 1507.37 1669.08C1504.3 1667.92 1501.12 1667.71 1497.82 1668.41C1494.52 1669.12 1491.32 1670.71 1488.17 1673.2C1485.02 1675.68 1482.73 1678.42 1481.29 1681.46C1479.84 1684.49 1479.31 1687.64 1479.69 1690.91C1480.08 1694.18 1481.41 1697.39 1483.72 1700.53C1492.65 1712.68 1501.58 1724.84 1510.5 1736.99C1512.81 1740.13 1515.53 1742.32 1518.7 1743.54C1521.86 1744.75 1525.27 1744.96 1528.9 1744.14C1532.53 1743.32 1536.17 1741.49 1539.77 1738.65C1543.37 1735.81 1546.01 1732.69 1547.66 1729.34Z" fill="#BB942E"/>
<path d="M1607.51 1692.56C1601.32 1695.11 1595.31 1695.64 1589.57 1694.23C1583.82 1692.82 1578.53 1689.5 1573.64 1684.37C1555.7 1665.53 1537.77 1646.7 1519.83 1627.86C1524.54 1623.38 1526.86 1621.1 1531.46 1616.46C1550.05 1634.9 1568.65 1653.33 1587.24 1671.77C1591.41 1675.9 1595.92 1677.79 1600.78 1677.33C1605.64 1676.86 1610.51 1674.1 1615.23 1669.01C1620.01 1663.87 1622.45 1658.75 1622.59 1653.82C1622.73 1648.89 1620.54 1644.51 1616.11 1640.66C1596.35 1623.48 1576.58 1606.3 1556.81 1589.13C1561.14 1584.15 1563.27 1581.62 1567.47 1576.5C1587.59 1592.98 1607.71 1609.46 1627.83 1625.94C1633.31 1630.43 1636.98 1635.5 1638.76 1641.19C1640.54 1646.88 1640.4 1652.99 1638.25 1659.44C1636.11 1665.88 1632.02 1672.46 1625.97 1678.98C1619.92 1685.5 1613.71 1690.02 1607.51 1692.56Z" fill="#BB942E"/>
<path d="M396.068 893.855C407.666 893.855 417.068 884.453 417.068 872.855C417.068 861.257 407.666 851.855 396.068 851.855C384.47 851.855 375.068 861.257 375.068 872.855C375.068 884.453 384.47 893.855 396.068 893.855Z" fill="#BB942E"/>
<path d="M500.068 681.855C511.666 681.855 521.068 672.453 521.068 660.855C521.068 649.257 511.666 639.855 500.068 639.855C488.47 639.855 479.068 649.257 479.068 660.855C479.068 672.453 488.47 681.855 500.068 681.855Z" fill="#BB942E"/>
<path d="M442.068 780.855C453.666 780.855 463.068 771.453 463.068 759.855C463.068 748.257 453.666 738.855 442.068 738.855C430.47 738.855 421.068 748.257 421.068 759.855C421.068 771.453 430.47 780.855 442.068 780.855Z" fill="#BB942E"/>
<path d="M820.064 1780.79C822.374 1769.42 815.033 1758.34 803.667 1756.03C792.301 1753.72 781.214 1761.06 778.904 1772.42C776.594 1783.79 783.935 1794.88 795.301 1797.19C806.667 1799.5 817.754 1792.16 820.064 1780.79Z" fill="#BB942E"/>
<path d="M605.763 1669.44C617.023 1666.66 623.895 1655.27 621.112 1644.02C618.33 1632.76 606.947 1625.88 595.688 1628.67C584.428 1631.45 577.556 1642.83 580.339 1654.09C583.121 1665.35 594.504 1672.22 605.763 1669.44Z" fill="#BB942E"/>
<path d="M711.056 1728.01C716.547 1717.79 712.716 1705.06 702.499 1699.57C692.282 1694.08 679.549 1697.91 674.059 1708.13C668.568 1718.34 672.399 1731.07 682.616 1736.57C692.833 1742.06 705.566 1738.22 711.056 1728.01Z" fill="#BB942E"/>
<path d="M1396.93 441.381C1407.26 436.106 1411.36 423.457 1406.08 413.127C1400.81 402.798 1388.16 398.701 1377.83 403.976C1367.5 409.25 1363.4 421.9 1368.68 432.229C1373.95 442.558 1386.6 446.656 1396.93 441.381Z" fill="#BB942E"/>
<path d="M1603.6 561.522C1610.43 552.154 1608.38 539.018 1599.01 532.181C1589.65 525.344 1576.51 527.395 1569.67 536.763C1562.84 546.131 1564.89 559.267 1574.25 566.104C1583.62 572.941 1596.76 570.89 1603.6 561.522Z" fill="#BB942E"/>
<path d="M1509.77 495.398C1517.87 487.091 1517.69 473.796 1509.39 465.701C1501.08 457.607 1487.79 457.779 1479.69 466.086C1471.6 474.392 1471.77 487.688 1480.08 495.782C1488.38 503.876 1501.68 503.704 1509.77 495.398Z" fill="#BB942E"/>
<path d="M1819.69 1335.39C1825.73 1325.49 1822.6 1312.57 1812.7 1306.53C1802.8 1300.49 1789.87 1303.62 1783.84 1313.52C1777.8 1323.42 1780.93 1336.34 1790.83 1342.38C1800.73 1348.42 1813.65 1345.29 1819.69 1335.39Z" fill="#BB942E"/>
<path d="M1691.75 1552.17C1703.19 1550.27 1710.93 1539.45 1709.03 1528.01C1707.13 1516.57 1696.31 1508.84 1684.87 1510.74C1673.43 1512.63 1665.7 1523.45 1667.6 1534.89C1669.5 1546.33 1680.31 1554.07 1691.75 1552.17Z" fill="#BB942E"/>
<path d="M1766.86 1448.5C1774.26 1439.57 1773.02 1426.33 1764.09 1418.93C1755.16 1411.53 1741.92 1412.77 1734.52 1421.7C1727.12 1430.64 1728.36 1443.87 1737.3 1451.27C1746.23 1458.67 1759.46 1457.43 1766.86 1448.5Z" fill="#BB942E"/>
<path d="M388.153 1435.19L317.748 1175.3L425.105 1146.21C444.563 1140.94 462.388 1140.2 478.578 1143.99C494.831 1147.67 508.64 1155.23 520.005 1166.68C531.348 1178.05 539.437 1192.65 544.273 1210.5C549.132 1228.44 549.449 1245.2 545.225 1260.78C541.063 1276.26 532.746 1289.63 520.273 1300.91C507.8 1312.19 491.624 1320.53 471.743 1325.91L405.501 1343.86L392.094 1294.37L446.661 1279.58C456.136 1277.02 463.599 1273.22 469.05 1268.21C474.586 1263.16 478.201 1257.24 479.897 1250.42C481.569 1243.52 481.328 1236.09 479.173 1228.14C476.996 1220.1 473.467 1213.61 468.586 1208.67C463.683 1203.64 457.581 1200.39 450.28 1198.92C442.98 1197.44 434.634 1197.98 425.244 1200.52L394.28 1208.91L450.969 1418.17L388.153 1435.19ZM646.077 1365.31L578.566 1383.6L595.849 1099.96L679.475 1077.3L837.568 1313.44L770.057 1331.73L656.353 1153.85L654.322 1154.4L646.077 1365.31ZM609.359 1265.47L750.471 1227.25L763.397 1274.96L622.284 1313.19L609.359 1265.47ZM865.549 1305.86L795.144 1045.97L902.501 1016.89C921.959 1011.61 939.703 1010.58 955.734 1013.77C971.826 1016.86 985.486 1023.87 996.714 1034.81C1007.92 1045.67 1015.93 1059.98 1020.74 1077.75C1025.62 1095.77 1025.84 1112.15 1021.38 1126.89C1016.91 1141.54 1008.33 1154.12 995.652 1164.64C982.95 1175.07 966.701 1182.97 946.904 1188.33L879.013 1206.73L865.606 1157.24L921.822 1142.01C931.297 1139.44 938.875 1136.07 944.556 1131.9C950.298 1127.62 954.131 1122.49 956.055 1116.52C957.956 1110.47 957.819 1103.42 955.641 1095.39C953.464 1087.35 950.015 1081.16 945.295 1076.8C940.552 1072.37 934.61 1069.71 927.47 1068.83C920.307 1067.86 912.03 1068.65 902.64 1071.2L871.676 1079.58L928.365 1288.84L865.549 1305.86ZM979.687 1147.44L1076.58 1248.69L1008.06 1267.25L912.43 1165.66L979.687 1147.44ZM1037.07 1035.19L1023.25 984.175L1242.91 924.668L1256.73 975.681L1177.92 997.03L1234.51 1205.91L1172.58 1222.68L1116 1013.81L1037.07 1035.19ZM1336.4 899.34L1406.81 1159.23L1343.99 1176.25L1273.59 916.357L1336.4 899.34ZM1502.46 1133.32L1434.95 1151.61L1452.23 867.962L1535.86 845.307L1693.95 1081.44L1626.44 1099.73L1512.73 921.857L1510.7 922.407L1502.46 1133.32ZM1465.74 1033.48L1606.85 995.25L1619.78 1042.96L1478.67 1081.19L1465.74 1033.48ZM1721.93 1073.86L1651.53 813.972L1714.34 796.955L1770.93 1005.83L1879.04 976.543L1892.86 1027.56L1721.93 1073.86Z" fill="#BB942E"/>
</svg>
